<?xml version="1.0" encoding="iso-8859-1"?>
<!-- Generator: Adobe Illustrator 19.0.0, SVG Export Plug-In . SVG Version: 6.00 Build 0)  -->
<svg version="1.1" id="Layer_1" xmlns="http://www.w3.org/2000/svg" xmlns:xlink="http://www.w3.org/1999/xlink" x="0px" y="0px"
	 viewBox="0 0 512 512" style="enable-background:new 0 0 512 512;" xml:space="preserve">
<path style="fill:#42577F;" d="M511.997,255.403c0.144,64.93-23.883,124.265-63.631,169.488
	c-8.583,9.771-17.909,18.886-27.869,27.247c-42.414,35.63-96.563,57.736-155.831,59.712c-2.676,0.089-5.374,0.133-8.072,0.144
	c-2.842,0.011-5.663-0.033-8.483-0.122c-59.157-1.788-113.295-23.661-155.786-59.046c-9.971-8.294-19.308-17.343-27.913-27.047
	C24.463,380.734,0.148,321.511,0.003,256.58C-0.319,115.194,114.031,0.323,255.417,0.001
	C396.792-0.321,511.675,114.018,511.997,255.403z"/>
<polyline style="fill:#D32654;" points="176.767,397.593 176.767,359.554 335.64,359.554 335.64,397.182 "/>
<path style="fill:#EB305B;" d="M420.5,452.142c-41.592,34.941-94.476,56.881-152.411,59.568c-1.144,0.056-2.276,0.111-3.42,0.144
	c-2.676,0.089-5.374,0.133-8.072,0.144c-2.842,0.011-5.663-0.033-8.483-0.122c-1.121-0.033-2.254-0.078-3.375-0.133
	c-45.322-1.954-87.614-15.7-123.843-38.283c-10.004-6.218-19.552-13.124-28.568-20.629c23.461-24.205,52.229-43.235,84.438-55.238
	c8.816-3.286,17.876-6.04,27.169-8.238c8.616-2.032,17.41-3.575,26.37-4.597c5.873-0.688,11.803-1.133,17.809-1.355
	c2.687-0.111,5.385-0.155,8.105-0.167c2.831-0.011,5.651,0.033,8.449,0.144c24.86,0.844,48.72,5.651,70.97,13.801
	C367.961,409.051,396.884,427.993,420.5,452.142z"/>
<path style="fill:#D32654;" d="M230.302,384.753l-11.947,14.645c0,0-63.076,25.726-97.462,74.057
	c-10.004-6.218-19.552-13.124-28.568-20.629c29.878-30.822,68.372-53.272,111.607-63.476
	C212.548,387.318,221.342,385.775,230.302,384.753z"/>
<g>
	<path style="fill:#EFC881;" d="M187.237,242.859c0-17.945-16.76-32.492-37.435-32.492s-37.435,14.547-37.435,32.492
		s16.76,45.099,37.435,45.099S187.237,260.804,187.237,242.859z"/>
	<path style="fill:#EFC881;" d="M399.638,242.859c0-17.945-16.76-32.492-37.435-32.492s-37.435,14.547-37.435,32.492
		s16.76,45.099,37.435,45.099S399.638,260.804,399.638,242.859z"/>
</g>
<g>
	<path style="fill:#E0B775;" d="M385.073,248.221c0-10.589-6.462-19.174-14.434-19.174s-14.434,8.584-14.434,19.174
		s6.462,11.957,14.434,11.957S385.073,258.81,385.073,248.221z"/>
	<path style="fill:#E0B775;" d="M155.795,248.221c0-10.589-6.462-19.174-14.434-19.174s-14.434,8.584-14.434,19.174
		s6.462,11.957,14.434,11.957C149.333,260.178,155.795,258.81,155.795,248.221z"/>
</g>
<path style="fill:#D32654;" d="M335.64,397.182c-11.858,12.546-26.137,22.306-41.992,28.357c-0.733,0.289-1.466,0.566-2.198,0.822
	c-11.17,4.008-23.083,6.151-35.441,6.151c-12.369,0-24.282-2.143-35.441-6.151c-0.744-0.255-1.477-0.533-2.21-0.822
	c-15.677-5.973-29.823-15.6-41.592-27.946c8.816-3.286,17.876-6.04,27.169-8.238c8.616-2.032,17.41-3.575,26.37-4.597
	c5.873-0.688,11.803-1.133,17.809-1.355c2.687-0.111,5.385-0.155,8.105-0.167c2.831-0.011,5.651,0.033,8.449,0.144
	C289.529,384.225,313.389,389.033,335.64,397.182z"/>
<path style="fill:#F9D387;" d="M371.347,211.962v66.74c0,12.602-1.654,24.793-4.741,36.296c-1.133,4.23-2.443,8.349-3.964,12.369
	c-12.524,33.675-37.706,60.101-68.994,72.036c-0.733,0.289-1.466,0.566-2.198,0.822c-11.17,4.008-23.083,6.151-35.441,6.151
	c-12.369,0-24.282-2.143-35.441-6.151c-0.744-0.255-1.477-0.533-2.21-0.822c-23.239-8.86-43.091-25.715-56.914-47.61
	c-4.797-7.583-8.86-15.766-12.08-24.427c-1.521-4.019-2.831-8.138-3.953-12.369c-3.098-11.503-4.752-23.694-4.752-36.296v-66.74
	c0-26.37,7.228-50.874,19.608-71.215c6.484-10.67,14.401-20.196,23.438-28.257c19.774-17.643,44.923-28.202,72.303-28.202
	c31.843,0,60.678,14.29,81.552,37.406C358.434,144.788,371.347,176.71,371.347,211.962z"/>
<g>
	<path style="fill:#EFC881;" d="M161.098,309.142l-0.155-1.189c-1.619-12.394-8.703-23.084-18.896-28.517l-1.389-0.741
		c0,12.607,1.651,24.795,4.744,36.3c1.127,4.222,2.438,8.343,3.958,12.361c12.531,33.674,37.709,60.109,68.996,72.035
		c-6.144-27.8-20.859-50.566-39.984-62.658C169.109,330.878,162.626,320.832,161.098,309.142z"/>
	<path style="fill:#EFC881;" d="M351.062,307.954l-0.155,1.189c-1.527,11.689-8.011,21.736-17.276,27.594
		c-19.125,12.091-33.84,34.858-39.984,62.658c31.287-11.926,56.465-38.361,68.996-72.035c1.52-4.019,2.831-8.14,3.958-12.361
		c3.093-11.505,4.744-23.693,4.744-36.3l-1.389,0.741C359.763,284.87,352.681,295.56,351.062,307.954z"/>
</g>
<path style="fill:#D32654;" d="M268.089,422.875v88.835c-1.144,0.056-2.276,0.111-3.42,0.144c-2.676,0.089-5.374,0.133-8.072,0.144
	c-2.842,0.011-5.663-0.033-8.483-0.122c-1.121-0.033-2.254-0.078-3.375-0.133v-88.869L268.089,422.875L268.089,422.875z"/>
<g>
	<circle style="fill:#F0A037;" cx="293.053" cy="456.145" r="9.993"/>
	<circle style="fill:#F0A037;" cx="293.053" cy="492.407" r="9.993"/>
</g>
<path style="fill:#EFC881;" d="M186.97,152.472c0,0-44.901,26.925-45.611,76.577c-0.033,2.554-0.278,4.841-0.699,6.873v-23.96
	c0-26.37,7.228-50.874,19.608-71.215L186.97,152.472z"/>
<path style="fill:#EB305B;" d="M365.973,69.71v99.861c-61.622-32.832-133.336-36.373-197.145-10.637
	c-7.728,3.12-15.344,6.662-22.806,10.637V69.71c11.68-6.218,23.716-11.381,35.985-15.489c0.011-0.011,0.011-0.011,0.011-0.011
	C242.397,33.958,308.571,39.121,365.973,69.71z"/>
<path style="fill:#D32654;" d="M168.828,158.923v0.011c-7.728,3.12-15.344,6.662-22.806,10.637V69.71
	c11.68-6.218,23.716-11.381,35.985-15.489C181.33,54.787,153.928,78.215,168.828,158.923z"/>
<g>
	<path style="fill:#4D4D4D;" d="M320.201,239.492v22.511c0,4.212-3.408,7.62-7.62,7.62c-4.064,0-7.381-3.179-7.6-7.193
		c-0.01-0.139-0.01-0.289-0.01-0.427v-22.511c0-4.212,3.408-7.62,7.61-7.62c2.106,0,4.014,0.854,5.384,2.225
		c0.984,0.984,1.699,2.235,2.026,3.626C320.131,238.289,320.201,238.885,320.201,239.492z"/>
	<path style="fill:#4D4D4D;" d="M199.407,269.622L199.407,269.622c-4.206,0-7.617-3.41-7.617-7.617v-22.518
		c0-4.206,3.41-7.617,7.617-7.617l0,0c4.206,0,7.617,3.41,7.617,7.617v22.518C207.024,266.212,203.613,269.622,199.407,269.622z"/>
</g>
<g>
	<path style="fill:#68635B;" d="M331.091,211.886c0-10.22-8.285-18.505-18.505-18.505s-18.505,8.285-18.505,18.505l0,0
		C304.302,201.666,320.872,201.666,331.091,211.886L331.091,211.886z"/>
	<path style="fill:#68635B;" d="M217.912,211.886c0-10.22-8.285-18.505-18.505-18.505s-18.505,8.285-18.505,18.505l0,0
		C191.122,201.666,207.692,201.666,217.912,211.886L217.912,211.886z"/>
</g>
<g>
	<path style="fill:#666666;" d="M320.195,239.492v22.511c0,4.212-3.408,7.62-7.62,7.62c-4.063,0-7.381-3.179-7.6-7.193
		c8.524-8.763,12.845-18.11,15.01-24.706C320.127,238.289,320.195,238.885,320.195,239.492z"/>
	<path style="fill:#666666;" d="M207.017,239.492v22.511c0,4.212-3.408,7.62-7.62,7.62c-4.064,0-7.381-3.179-7.6-7.193
		c8.524-8.763,12.845-18.11,15.01-24.706C206.947,238.289,207.017,238.885,207.017,239.492z"/>
</g>
<path style="fill:#E0B775;" d="M274.086,293.124c0-0.567-0.114-1.121-0.331-1.658c-2.302-5.685-3.93-11.609-3.882-17.743
	c0.006-0.685,0.008-1.383,0.008-2.095c0-34.248-6.215-54.758-13.882-54.758c-7.667,0-13.882,20.509-13.882,54.758
	c0,0.712,0.002,1.41,0.008,2.095c0.049,6.133-1.581,12.058-3.882,17.743c-0.218,0.536-0.331,1.09-0.331,1.658
	c0,2.796,2.754,5.276,7.016,6.867c2.535,7.915,6.55,9.008,11.071,9.008c4.521,0,8.537-1.093,11.071-9.008
	C271.332,298.4,274.086,295.919,274.086,293.124z"/>
<path style="fill:#4D4D4D;" d="M297.417,332.598c-0.011,0.111-0.011,0.211-0.022,0.322c-0.044,0.633-0.111,1.266-0.211,1.888
	c-0.078,0.489-0.167,0.966-0.278,1.443c-0.078,0.344-0.167,0.688-0.255,1.033c-0.366,1.321-0.855,2.609-1.466,3.864
	c-1.943,4.064-5.063,7.728-9.071,10.77c-7.572,5.729-18.253,9.304-30.111,9.304c-11.858,0-22.539-3.575-30.111-9.304
	c-4.008-3.042-7.128-6.706-9.071-10.77c-0.611-1.255-1.099-2.543-1.466-3.864c-0.089-0.344-0.178-0.688-0.255-1.033
	c-0.111-0.477-0.2-0.955-0.278-1.443c-0.1-0.622-0.167-1.255-0.211-1.888c-0.011-0.111-0.011-0.211-0.022-0.322
	c1.454,0.289,2.931,0.566,4.441,0.822c11.159,1.932,23.705,3.009,36.973,3.009c13.268,0,25.814-1.077,36.973-3.009
	C294.485,333.164,295.962,332.887,297.417,332.598z"/>
<path style="fill:#F2F2F2;" d="M297.417,332.598c-0.011,0.111-0.011,0.211-0.022,0.322c-0.044,0.633-0.111,1.266-0.211,1.888
	c-0.078,0.489-0.167,0.966-0.278,1.443c-0.078,0.344-0.167,0.688-0.255,1.033c-0.366,1.321-0.855,2.609-1.466,3.864
	c-3.997,0.622-8.161,1.155-12.458,1.577c-8.449,0.844-17.421,1.288-26.725,1.288c-9.304,0-18.276-0.444-26.725-1.288
	c-4.297-0.422-8.46-0.955-12.458-1.577c-0.611-1.255-1.099-2.543-1.466-3.864c-0.089-0.344-0.178-0.688-0.255-1.033
	c-0.111-0.477-0.2-0.955-0.278-1.443c-0.1-0.622-0.167-1.255-0.211-1.888c-0.011-0.111-0.011-0.211-0.022-0.322
	c1.454,0.289,2.931,0.566,4.441,0.822c11.159,1.932,23.705,3.009,36.973,3.009s25.815-1.077,36.973-3.009
	C294.485,333.164,295.962,332.887,297.417,332.598z"/>
<path style="fill:#FFFFFF;" d="M292.975,333.42c-1.81,2.587-4.13,4.952-6.862,7.028c-1.066,0.811-2.198,1.577-3.386,2.276
	c-8.449,0.844-17.421,1.288-26.725,1.288s-18.276-0.444-26.725-1.288c-1.188-0.7-2.321-1.466-3.386-2.276
	c-2.731-2.076-5.052-4.441-6.862-7.028c11.159,1.932,23.705,3.009,36.973,3.009C269.27,336.429,281.817,335.352,292.975,333.42z"/>
<path style="fill:#EFC881;" d="M277.76,370.073c0-4.541-9.743,0.484-21.763,0.484s-21.763-5.024-21.763-0.484
	c0,4.54,9.743,8.222,21.763,8.222C268.016,378.294,277.76,374.613,277.76,370.073z"/>
<g>
</g>
<g>
</g>
<g>
</g>
<g>
</g>
<g>
</g>
<g>
</g>
<g>
</g>
<g>
</g>
<g>
</g>
<g>
</g>
<g>
</g>
<g>
</g>
<g>
</g>
<g>
</g>
<g>
</g>
</svg>
